HIERARCHY
ROOT Hips
{
	OFFSET 0.00000 0.00000 0.00000
	CHANNELS 6 Xposition Yposition Zposition Zrotation Yrotation Xrotation 
	JOINT LHipJoint
	{
		OFFSET 0 0 0
		CHANNELS 3 Zrotation Yrotation Xrotation
		JOINT LeftHip
		{
			OFFSET 1.52977 -1.71332 0.88991
			CHANNELS 3 Zrotation Yrotation Xrotation
			JOINT LeftKnee
			{
				OFFSET 2.23949 -6.15296 0.00000
				CHANNELS 3 Zrotation Yrotation Xrotation
				JOINT LeftAnkle
				{
					OFFSET 2.68396 -7.37412 0.00000
					CHANNELS 3 Zrotation Yrotation Xrotation
					JOINT LeftToe
					{
						OFFSET 0.20538 -0.56428 2.52710
						CHANNELS 3 Zrotation Yrotation Xrotation
						End Site
						{
							OFFSET 0.00000 -0.00000 1.29919
						}
					}
				}
			}
		}
	}
	JOINT RHipJoint
	{
		OFFSET 0 0 0
		CHANNELS 3 Zrotation Yrotation Xrotation
		JOINT RightHip
		{
			OFFSET -1.45689 -1.71333 0.88991
			CHANNELS 3 Zrotation Yrotation Xrotation
			JOINT RightKnee
			{
				OFFSET -2.36700 -6.50329 0.00000
				CHANNELS 3 Zrotation Yrotation Xrotation
				JOINT RightAnkle
				{
					OFFSET -2.69814 -7.41308 0.00000
					CHANNELS 3 Zrotation Yrotation Xrotation
					JOINT RightToe
					{
						OFFSET -0.18734 -0.51471 2.37479
						CHANNELS 3 Zrotation Yrotation Xrotation
						End Site
						{
							OFFSET -0.00000 -0.00000 1.22113
						}
					}
				}
			}
		}
	}
	JOINT lowerback
	{
		OFFSET 0 0 0
		CHANNELS 3 Zrotation Yrotation Xrotation
		JOINT Chest
		{
			OFFSET 0.04294 2.14638 -0.31163
			CHANNELS 3 Zrotation Yrotation Xrotation
			JOINT Chest2
			{
				OFFSET -0.00400 2.17216 0.01486
				CHANNELS 3 Zrotation Yrotation Xrotation
				JOINT lowerneck
				{
					OFFSET 0 0 0
					CHANNELS 3 Zrotation Yrotation Xrotation
					JOINT Neck
					{
						OFFSET 0.03869 1.76598 0.14916
						CHANNELS 3 Zrotation Yrotation Xrotation
						JOINT Head
						{
							OFFSET -0.00760 1.75513 -0.18948
							CHANNELS 3 Zrotation Yrotation Xrotation
							End Site
							{
								OFFSET -0.00601 1.82444 -0.08310
							}
						}
					}
				}
				JOINT LeftCollar
				{
					OFFSET 0 0 0
					CHANNELS 3 Zrotation Yrotation Xrotation
					JOINT LeftShoulder
					{
						OFFSET 3.73696 0.92058 0.01733
CHANNELS 3 Zrotation Xrotation Yrotation
						JOINT LeftElbow
						{
OFFSET 0 -5.227710 0.000000
CHANNELS 3 Zrotation Xrotation Yrotation
							JOINT LeftWrist
							{
OFFSET 0 -3.452510 0.000000
CHANNELS 3 Zrotation Xrotation Yrotation
								JOINT lhand
								{
									OFFSET 0 0 0
CHANNELS 3 Zrotation Xrotation Yrotation
									JOINT LFingers
									{
OFFSET 0 -0.552120 0.000000
CHANNELS 3 Zrotation Xrotation Yrotation
										End Site
										{
OFFSET 0 -0.445130 0.000000
										}
									}
								}
								JOINT LThumb
								{
OFFSET 0 0.000000 0.000000
CHANNELS 3 Zrotation Xrotation Yrotation
									End Site
									{
OFFSET 0 -0.451930 0.451930
									}
								}
							}
						}
					}
				}
				JOINT RightCollar
				{
					OFFSET 0 0 0
					CHANNELS 3 Zrotation Yrotation Xrotation
					JOINT RightShoulder
					{
						OFFSET -3.63819 0.83094 -0.13694
CHANNELS 3 Zrotation Xrotation Yrotation
						JOINT RightElbow
						{
OFFSET 0 -5.239800 -0.000000
CHANNELS 3 Zrotation Xrotation Yrotation
							JOINT RightWrist
							{
OFFSET 0 -3.480420 -0.000000
CHANNELS 3 Zrotation Xrotation Yrotation
								JOINT rhand
								{
									OFFSET 0 0 0
CHANNELS 3 Zrotation Xrotation Yrotation
									JOINT RFingers
									{
OFFSET 0 -0.618710 0.000000
CHANNELS 3 Zrotation Xrotation Yrotation
										End Site
										{
OFFSET 0 -0.498820 0.000000
										}
									}
								}
								JOINT RThumb
								{
OFFSET 0 0.000000 0.000000
CHANNELS 3 Zrotation Xrotation Yrotation
									End Site
									{
OFFSET 0 -0.506440 0.506440
									}
								}
							}
						}
					}
				}
			}
		}
	}
}
MOTION
Frames: 7
Frame Time: 0.008333333333333333
50.559600 16.707700 -5.598000 -59.212200 -86.402600 88.715700 0.000000 0.000000 0.000000 -14.555100 -2.208700 -40.197500 0.777200 5.628700 15.710800 0.110700 -0.314300 -6.177300 0.153200 -2.522500 -6.951900 0.000000 0.000000 0.000000 13.202500 21.102900 -42.836800 -2.649300 -10.104400 29.315300 -0.644100 -9.229600 -21.205600 -0.401100 -4.065900 11.262100 3.667500 -0.673100 18.399400 0.702300 -0.250700 2.554300 -1.260600 -0.276800 -7.561900 1.500400 -0.051700 -1.981500 1.884700 -0.079200 -4.658600 0.330300 -0.112800 -1.095700 -0.000000 0.000000 0.000000 3.809100 0.152000 -28.421200 20.770900 -31.559900 5.929600 20.141300 -24.557600 -12.192000 0.000000 0.000000 0.000000 -7.125000 0.000000 0.000000 -6.422800 42.849400 -0.342400 -0.000000 0.000000 0.000000 -0.538400 -0.027600 24.909800 -19.371200 -29.877300 -5.214400 -21.901400 -0.068700 6.686900 0.000000 0.000000 0.000000 7.125000 0.000000 -0.000000 4.129000 37.153700 0.798800
50.550803 16.707772 -5.600654 -58.972847 -86.379274 88.443191 0.000000 0.000000 0.000000 -14.527111 -2.194875 -40.132768 0.778028 5.631610 15.719267 0.111982 -0.328906 -6.209551 0.153344 -2.523355 -6.954404 0.000000 0.000000 0.000000 13.266746 21.078636 -42.751314 -2.647600 -10.101400 29.305755 -0.652516 -9.186209 -21.247994 -0.406305 -4.090196 11.330872 3.730091 -0.643878 18.384829 0.666840 -0.201715 2.529488 -1.346192 -0.255580 -7.578726 1.608805 -0.109293 -1.998327 1.875479 -0.158763 -4.600152 0.309703 -0.153223 -1.074516 0.000000 0.000000 0.000000 3.853669 0.063213 -28.416890 20.508420 -31.249734 5.792976 20.179623 -24.502814 -12.005634 0.000000 0.000000 0.000000 -7.125000 0.000000 0.000000 -6.354866 42.657678 -0.368911 0.000000 0.000000 0.000000 -0.222857 0.070126 23.989938 -18.961842 -29.370884 -5.012338 -21.830294 -0.100291 6.890776 0.000000 0.000000 0.000000 7.125000 0.000000 0.000000 4.209775 37.367664 0.792330
50.541988 16.707828 -5.603253 -58.352869 -86.361142 87.792063 0.000000 0.000000 0.000000 -14.511503 -2.208313 -40.060300 0.777518 5.629937 15.714410 0.112382 -0.316289 -6.225107 0.159958 -2.576993 -7.103179 0.000000 0.000000 0.000000 13.298135 21.066520 -42.672215 -2.647237 -10.100855 29.303884 -0.661277 -9.167994 -21.314947 -0.412439 -4.122358 11.421192 3.750018 -0.651715 18.346571 0.672537 -0.207970 2.514090 -1.350040 -0.258781 -7.575023 1.612047 -0.120606 -1.995928 1.865094 -0.173987 -4.617177 0.306064 -0.161080 -1.080206 0.000000 0.000000 0.000000 3.793752 -0.028522 -28.267541 20.247580 -30.939473 5.658146 20.167954 -24.358742 -12.126574 0.000000 0.000000 0.000000 -7.125000 0.000000 0.000000 -6.386992 42.783507 -0.350870 0.000000 0.000000 0.000000 -0.001025 0.182459 23.232135 -18.568870 -28.879375 -4.820932 -21.626524 -0.038718 7.226719 0.000000 0.000000 0.000000 7.125000 0.000000 0.000000 4.417803 37.714095 0.794086
50.532954 16.707564 -5.605543 -57.889922 -86.338760 87.296326 0.000000 0.000000 0.000000 -14.490450 -2.214140 -39.993734 0.777672 5.630326 15.715406 0.112845 -0.306461 -6.242228 0.166358 -2.627636 -7.243727 0.000000 0.000000 0.000000 13.339682 21.052409 -42.593037 -2.646410 -10.099357 29.299034 -0.658405 -9.226328 -21.340342 -0.393149 -4.025817 11.149276 3.784312 -0.653985 18.311135 0.671052 -0.204309 2.493830 -1.372147 -0.257754 -7.577614 1.622090 -0.131803 -2.004648 1.867704 -0.189482 -4.607248 0.305262 -0.168823 -1.075596 0.000000 0.000000 0.000000 3.751473 -0.081323 -28.149597 20.008041 -30.651905 5.535495 20.176542 -24.263452 -12.144526 0.000000 0.000000 0.000000 -7.125000 0.000000 0.000000 -6.382593 42.803261 -0.347510 0.000000 0.000000 0.000000 0.211724 0.301076 22.554534 -18.158447 -28.359183 -4.624423 -21.540234 0.047226 7.517579 0.000000 0.000000 0.000000 7.125000 0.000000 0.000000 4.522946 38.019130 0.779225
50.524020 16.707337 -5.607398 -57.520131 -86.311191 86.891767 0.000000 0.000000 0.000000 -14.463065 -2.215929 -39.931956 0.778698 5.634084 15.726307 0.113590 -0.302420 -6.264731 0.172039 -2.671776 -7.366205 0.000000 0.000000 0.000000 13.394071 21.028126 -42.512884 -2.644675 -10.096277 29.289079 -0.651973 -9.296908 -21.342563 -0.368587 -3.899415 10.793814 3.821878 -0.660763 18.275734 0.675302 -0.205153 2.470322 -1.388698 -0.259098 -7.584053 1.622600 -0.136678 -2.012472 1.870653 -0.196194 -4.591087 0.306063 -0.171943 -1.069218 0.000000 0.000000 0.000000 3.698380 -0.104200 -28.026346 19.779732 -30.375945 5.419559 20.191580 -24.197656 -12.136691 0.000000 0.000000 0.000000 -7.125000 0.000000 0.000000 -6.367749 42.796681 -0.347735 0.000000 0.000000 0.000000 0.381314 0.426495 22.013758 -17.738437 -27.820697 -4.426638 -21.465476 0.122818 7.764789 0.000000 0.000000 0.000000 7.125000 0.000000 0.000000 4.614498 38.277895 0.765741
50.515069 16.707381 -5.608925 -57.303833 -86.282851 86.639643 0.000000 0.000000 0.000000 -14.433551 -2.208537 -39.873142 0.780343 5.639911 15.743199 0.114643 -0.306366 -6.292334 0.175297 -2.697218 -7.436939 0.000000 0.000000 0.000000 13.458175 20.996195 -42.433031 -2.642421 -10.092351 29.276245 -0.646838 -9.342869 -21.334633 -0.349518 -3.798357 10.510082 3.856760 -0.668707 18.242211 0.684750 -0.207339 2.441499 -1.397832 -0.261001 -7.597208 1.620654 -0.135589 -2.025359 1.867258 -0.195480 -4.559071 0.305189 -0.170851 -1.057068 0.000000 0.000000 0.000000 3.629987 -0.091104 -27.901522 19.562676 -30.111741 5.310211 20.210189 -24.145642 -12.116113 0.000000 0.000000 0.000000 -7.125000 0.000000 0.000000 -6.347392 42.776937 -0.349700 0.000000 0.000000 0.000000 0.500454 0.558347 21.615330 -17.314460 -27.270204 -4.230566 -21.341595 0.163635 7.893771 0.000000 0.000000 0.000000 7.125000 0.000000 0.000000 4.735432 38.406743 0.770998
50.505401 16.708035 -5.610814 -56.908128 -86.258342 86.190232 0.000000 0.000000 0.000000 -14.410056 -2.200835 -39.781216 0.781072 5.642317 15.749980 0.115880 -0.317993 -6.322508 0.176028 -2.702838 -7.452413 0.000000 0.000000 0.000000 13.509885 20.985983 -42.319655 -2.640893 -10.089731 29.267729 -0.649226 -9.369950 -21.382685 -0.343900 -3.768300 10.425672 3.876266 -0.681938 18.222927 0.700377 -0.218459 2.413144 -1.389417 -0.266816 -7.618065 1.623481 -0.131516 -2.038814 1.848373 -0.191189 -4.519375 0.298798 -0.167651 -1.042527 0.000000 0.000000 0.000000 3.546900 -0.049044 -27.782124 19.354222 -29.856392 5.206092 20.227063 -24.082777 -12.114563 0.000000 0.000000 0.000000 -7.125000 0.000000 0.000000 -6.331969 42.777060 -0.348831 0.000000 0.000000 0.000000 0.575745 0.702065 21.323175 -16.913102 -26.742774 -4.048278 -21.088416 0.195868 7.922852 0.000000 0.000000 0.000000 7.125000 0.000000 0.000000 4.955637 38.419701 0.805498
